<svg xmlns="http://www.w3.org/2000/svg" width="116" height="116" fill="none" viewBox="0 0 116 116"><path fill="url(#paint0_linear_10_87)" d="M112.78 91.7298L94.9801 73.9299C93.2071 72.2352 90.8358 71.3103 88.3836 71.3572C85.9313 71.404 83.5971 72.4187 81.8901 74.1799L72.8901 83.1799L71.1201 82.1799C65.4501 79.0399 57.7001 74.7398 49.5501 66.5798C41.4001 58.4198 37.0601 50.5798 33.9101 44.9698L32.9101 43.2399L38.9101 37.2399L41.9101 34.2399C43.671 32.5315 44.6837 30.1953 44.7268 27.7423C44.7699 25.2893 43.8399 22.919 42.1401 21.1499L24.3401 3.33983C22.57 1.64324 20.1999 0.717048 17.7485 0.763902C15.297 0.810756 12.964 1.82684 11.2601 3.58983L6.26006 8.63988L6.40006 8.76988C4.67729 10.9886 3.28298 13.4438 2.26006 16.0599C1.34268 18.4409 0.724613 20.9265 0.420068 23.4598C-1.92993 42.9498 6.98007 60.7499 31.1401 84.9199C64.5501 118.32 91.4701 115.8 92.6301 115.68C95.1723 115.372 97.6654 114.743 100.05 113.81C102.657 112.801 105.103 111.416 107.31 109.7L107.42 109.79L112.5 104.79C114.256 103.088 115.271 100.762 115.323 98.3174C115.376 95.8724 114.462 93.5054 112.78 91.7298Z"/><defs><linearGradient id="paint0_linear_10_87" x1=".1" x2="115.37" y1="58.27" y2="58.27" gradientUnits="userSpaceOnUse"><stop stop-color="#46C4FF"/><stop offset=".84" stop-color="#2FF2DC"/></linearGradient></defs></svg>