<svg xmlns="http://www.w3.org/2000/svg" width="217" height="173" fill="none" viewBox="0 0 217 173"><path fill="#fff" d="M149.769 0.779786H66.6194C48.9789 0.782438 32.0619 7.79197 19.5891 20.2666C7.11635 32.7412 0.109375 49.6593 0.109375 67.2998V87.2998C0.109375 104.939 7.11668 121.856 19.5897 134.329C32.0628 146.803 48.9798 153.81 66.6194 153.81H148.249L169.099 170.19C170.532 171.317 172.265 171.996 174.082 172.144C175.898 172.291 177.718 171.899 179.314 171.018C180.909 170.136 182.209 168.804 183.052 167.188C183.894 165.571 184.241 163.742 184.049 161.93L182.299 145.28C192.612 139.509 201.199 131.092 207.176 120.897C213.152 110.702 216.302 99.0974 216.299 87.2798V67.2798C216.294 49.6393 209.282 32.7233 196.806 20.2524C184.329 7.78156 167.41 0.777133 149.769 0.779786ZM56.6494 90.5797C53.3577 90.5817 50.1395 89.6068 47.4023 87.7784C44.6652 85.9501 42.5321 83.3506 41.2734 80.3091C40.0147 77.2676 39.6868 73.921 40.3315 70.6931C40.9761 67.4652 42.5641 64.5011 44.8945 62.1764C47.2248 59.8516 50.1927 58.2707 53.4221 57.6339C56.6516 56.9971 59.9974 57.3331 63.0358 58.5991C66.0743 59.8652 68.6686 62.0044 70.4904 64.746C72.3121 67.4875 73.2793 70.7081 73.2694 73.9998C73.2561 78.3999 71.4996 82.6155 68.3845 85.7231C65.2693 88.8308 61.0496 90.5771 56.6494 90.5797ZM109.859 90.5797C106.568 90.5797 103.351 89.6031 100.615 87.7736C97.8792 85.944 95.7477 83.3438 94.4905 80.3021C93.2333 77.2605 92.9069 73.9143 93.5527 70.687C94.1984 67.4598 95.7872 64.4966 98.118 62.1729C100.449 59.8491 103.417 58.2692 106.646 57.6332C109.875 56.9972 113.22 57.3336 116.258 58.6C119.296 59.8663 121.89 62.0057 123.711 64.7471C125.532 67.4884 126.499 70.7085 126.489 73.9998C126.476 78.4016 124.718 82.6188 121.601 85.7267C118.484 88.8346 114.261 90.5797 109.859 90.5797ZM163.069 90.5797C159.778 90.5797 156.561 89.6031 153.825 87.7736C151.089 85.944 148.958 83.3438 147.701 80.3021C146.443 77.2605 146.117 73.9143 146.763 70.687C147.408 67.4598 148.997 64.4966 151.328 62.1729C153.659 59.8491 156.627 58.2692 159.856 57.6332C163.085 56.9972 166.43 57.3336 169.468 58.6C172.506 59.8663 175.1 62.0057 176.921 64.7471C178.742 67.4884 179.709 70.7085 179.699 73.9998C179.686 78.4016 177.928 82.6188 174.811 85.7267C171.694 88.8346 167.471 90.5797 163.069 90.5797Z"/></svg>