<svg xmlns="http://www.w3.org/2000/svg" width="50" height="54" fill="none" viewBox="0 0 50 54"><path fill="url(#paint0_linear_10_604)" d="M47.6803 20.0001L29.0003 1.78015C27.8778 0.674767 26.3657 0.0551758 24.7903 0.0551758C23.2149 0.0551758 21.7028 0.674767 20.5803 1.78015L1.8903 20.0001C1.31481 20.5629 0.857407 21.2349 0.544891 21.9767C0.232375 22.7185 0.0710392 23.5151 0.0703125 24.3201V47.0901C0.0703125 48.6814 0.702449 50.2075 1.82767 51.3328C2.95289 52.458 4.47901 53.0901 6.07031 53.0901H16.0003C16.2861 53.0901 16.5691 53.0336 16.833 52.924C17.097 52.8143 17.3366 52.6536 17.5383 52.451C17.7399 52.2485 17.8995 52.0081 18.008 51.7437C18.1165 51.4792 18.1716 51.196 18.1703 50.9102V38.6501C18.1381 37.1408 18.6062 35.6632 19.5016 34.4476C20.3969 33.2321 21.6693 32.347 23.1203 31.9302C24.1079 31.6703 25.142 31.6402 26.143 31.8424C27.1441 32.0446 28.0854 32.4738 28.8947 33.0967C29.704 33.7196 30.3597 34.5197 30.8114 35.4357C31.2631 36.3516 31.4988 37.3589 31.5003 38.3801V51.0001C31.5003 51.5783 31.73 52.1328 32.1388 52.5416C32.5476 52.9505 33.1021 53.1802 33.6803 53.1802H43.5203C45.1116 53.1802 46.6377 52.5479 47.7629 51.4227C48.8882 50.2975 49.5203 48.7715 49.5203 47.1802V24.4102C49.5291 23.5887 49.3705 22.7739 49.0541 22.0157C48.7378 21.2576 48.2703 20.5718 47.6803 20.0001Z"/><defs><linearGradient id="paint0_linear_10_604" x1=".07" x2="49.5" y1="26.6" y2="26.6" gradientUnits="userSpaceOnUse"><stop stop-color="#372A47"/><stop offset=".98" stop-color="#372A47"/></linearGradient></defs></svg>