<svg width="49" height="53" viewBox="0 0 49 53" fill="none" xmlns="http://www.w3.org/2000/svg">
<path d="M48.4905 45.61L45.6505 20.3C45.492 18.8221 44.7905 17.4556 43.682 16.4653C42.5735 15.4751 41.1369 14.9315 39.6505 14.9399H36.0005V11.8101C36.0005 8.76007 34.7889 5.83489 32.6322 3.67822C30.4756 1.52155 27.5505 0.310059 24.5005 0.310059C21.4505 0.310059 18.5255 1.52155 16.3688 3.67822C14.2121 5.83489 13.0005 8.76007 13.0005 11.8101V14.9399H9.40052C7.91414 14.9315 6.47753 15.4751 5.36902 16.4653C4.26052 17.4556 3.55904 18.8221 3.40052 20.3L0.560521 45.61C0.461279 46.4547 0.542742 47.3108 0.799504 48.1216C1.05627 48.9324 1.48247 49.6793 2.04984 50.3129C2.61721 50.9464 3.31277 51.4521 4.09043 51.7964C4.86809 52.1407 5.71007 52.3159 6.56052 52.3101H42.5005C43.3501 52.3144 44.191 52.1383 44.9674 51.7933C45.7439 51.4484 46.4382 50.9425 47.0045 50.3091C47.5708 49.6757 47.9961 48.9292 48.2523 48.1191C48.5084 47.3091 48.5896 46.4538 48.4905 45.61ZM18.1805 11.8101C18.1805 10.1259 18.8496 8.51068 20.0404 7.31982C21.2313 6.12897 22.8464 5.45996 24.5305 5.45996C26.2146 5.45996 27.8298 6.12897 29.0207 7.31982C30.2115 8.51068 30.8805 10.1259 30.8805 11.8101V14.9399H18.1805V11.8101Z" fill="url(#paint0_linear_10_606)"/>
<defs>
<linearGradient id="paint0_linear_10_606" x1="0.530521" y1="26.3101" x2="48.5305" y2="26.3101" gradientUnits="userSpaceOnUse">
<stop stop-color="#372A47"/>
<stop offset="0.98" stop-color="#372A47"/>
</linearGradient>
</defs>
</svg>
