<svg xmlns="http://www.w3.org/2000/svg" width="54" height="45" fill="none" viewBox="0 0 54 45"><path fill="url(#paint0_linear_10_605)" d="M31.5308 0.410156H22.4107C16.5256 0.410156 10.8815 2.74799 6.72003 6.90942C2.5586 11.0709 0.220703 16.7149 0.220703 22.6001C0.220703 28.4853 2.5586 34.1293 6.72003 38.2908C10.8815 42.4522 16.5256 44.7902 22.4107 44.7902H31.5308C37.4159 44.7902 43.06 42.4522 47.2214 38.2908C51.3829 34.1293 53.7207 28.4853 53.7207 22.6001C53.7207 16.7149 51.3829 11.0709 47.2214 6.90942C43.06 2.74799 37.4159 0.410156 31.5308 0.410156ZM19.3507 27.9302C18.2965 27.9302 17.266 27.6175 16.3895 27.0319C15.513 26.4462 14.8299 25.6137 14.4265 24.6398C14.023 23.6658 13.9175 22.5942 14.1232 21.5603C14.3288 20.5264 14.8364 19.5767 15.5818 18.8313C16.3273 18.0859 17.277 17.5782 18.3109 17.3726C19.3448 17.1669 20.4165 17.2725 21.3904 17.6759C22.3644 18.0793 23.1968 18.7624 23.7825 19.6389C24.3681 20.5154 24.6807 21.5459 24.6807 22.6001C24.6807 24.0137 24.1192 25.3694 23.1196 26.369C22.1201 27.3686 20.7643 27.9302 19.3507 27.9302ZM35.3507 27.9302C34.2965 27.9302 33.266 27.6175 32.3895 27.0319C31.513 26.4462 30.8299 25.6137 30.4265 24.6398C30.023 23.6658 29.9175 22.5942 30.1232 21.5603C30.3288 20.5264 30.8364 19.5767 31.5818 18.8313C32.3273 18.0859 33.277 17.5782 34.3109 17.3726C35.3448 17.1669 36.4165 17.2725 37.3904 17.6759C38.3644 18.0793 39.1968 18.7624 39.7825 19.6389C40.3681 20.5154 40.6807 21.5459 40.6807 22.6001C40.6807 23.3017 40.5422 23.9964 40.2731 24.6444C40.004 25.2924 39.6096 25.8809 39.1125 26.3761C38.6155 26.8713 38.0256 27.2635 37.3766 27.5302C36.7276 27.7968 36.0324 27.9328 35.3307 27.9302H35.3507Z"/><defs><linearGradient id="paint0_linear_10_605" x1=".221" x2="53.721" y1="22.6" y2="22.6" gradientUnits="userSpaceOnUse"><stop stop-color="#372A47"/><stop offset=".98" stop-color="#372A47"/></linearGradient></defs></svg>