<svg width="61" height="60" viewBox="0 0 61 60" fill="none" xmlns="http://www.w3.org/2000/svg">
<path d="M39.2507 40.2799C37.2662 42.0197 34.8104 43.1321 32.1938 43.4768C29.5773 43.8215 26.9172 43.3828 24.5498 42.2163C22.1824 41.0498 20.2138 39.2078 18.8929 36.923C17.5719 34.6381 16.9578 32.0131 17.1282 29.3794C17.2986 26.7457 18.2458 24.2216 19.8501 22.126C21.4544 20.0304 23.6438 18.4574 26.1418 17.6056C28.6398 16.7538 31.3341 16.6615 33.8845 17.3405C36.4349 18.0194 38.7268 19.439 40.4707 21.4199C41.6295 22.7382 42.5171 24.2718 43.0829 25.9332C43.6488 27.5946 43.8817 29.3512 43.7684 31.1027C43.6551 32.8541 43.1978 34.5661 42.4226 36.1407C41.6475 37.7154 40.5697 39.1219 39.2507 40.2799ZM60.2507 29.2799C60.2088 28.1451 60.1053 27.0135 59.9407 25.8899L54.0407 24.8899L52.0407 19.3198L55.9707 14.8099C54.7827 12.8367 53.37 11.0077 51.7607 9.35986L46.4107 12.0499L41.5107 8.70984L42.0407 2.70984C39.9828 1.8385 37.8322 1.2044 35.6307 0.819824L32.8507 6.12988L26.9207 6.2699L23.9207 1.10986C21.6729 1.61951 19.4917 2.38801 17.4207 3.3999L18.2907 9.32983L13.5807 12.9299L8.09073 10.5599C6.57448 12.2917 5.26563 14.1945 4.19074 16.2299L8.37073 20.5099L6.68073 26.1898L0.85074 27.4999C0.743561 28.6967 0.706815 29.8987 0.740724 31.0999C0.78144 32.1974 0.878242 33.2922 1.03073 34.3799L6.93073 35.3799L8.93073 40.9598L4.93073 45.4498C6.12164 47.4303 7.53408 49.2689 9.14075 50.9299L14.5007 48.2599L19.3907 51.6099L18.8407 57.6099C20.9607 58.5148 23.1791 59.1693 25.4507 59.5599L28.2107 54.2399L34.1407 54.0798L37.1907 59.2299C39.4392 58.7084 41.6202 57.93 43.6907 56.9099L42.8007 50.9899L47.4907 47.3699L52.9907 49.7198C54.4986 47.9765 55.8036 46.0677 56.8807 44.0299L52.6707 39.7799L54.3407 34.0798L60.1707 32.7599C60.2741 31.5963 60.3075 30.4275 60.2707 29.2599L60.2507 29.2799Z" fill="url(#paint0_linear_10_607)"/>
<defs>
<linearGradient id="paint0_linear_10_607" x1="0.650726" y1="30.2599" x2="60.2307" y2="30.2599" gradientUnits="userSpaceOnUse">
<stop stop-color="#372A47"/>
<stop offset="0.98" stop-color="#372A47"/>
</linearGradient>
</defs>
</svg>
